<svg width="1504" height="368" viewBox="0 0 1504 368" fill="none" xmlns="http://www.w3.org/2000/svg">
<path d="M473.79 323.77H478.85V366.65H473.79V323.77ZM477.44 345.59H488.64C491.2 345.59 493.23 344.82 494.72 343.29C496.21 341.75 496.96 339.66 496.96 337.02C496.96 334.38 496.21 332.28 494.72 330.75C493.23 329.21 491.2 328.45 488.64 328.45H477.44V323.78H489.09C491.69 323.78 493.97 324.3 495.94 325.35C497.9 326.4 499.41 327.91 500.45 329.89C501.49 331.87 502.02 334.21 502.02 336.9C502.02 339.59 501.5 342.05 500.45 344.04C499.4 346.02 497.9 347.55 495.94 348.62C493.98 349.69 491.69 350.22 489.09 350.22H477.44V345.61V345.59ZM487.62 348.92L492.48 348.02L502.46 366.64H496.57L487.61 348.91L487.62 348.92Z" fill="white"/>
<path d="M535.49 365.72C533.23 364.59 531.47 362.97 530.21 360.86C528.95 358.75 528.32 356.31 528.32 353.53V336.89C528.32 334.12 528.95 331.68 530.21 329.59C531.47 327.5 533.23 325.88 535.49 324.73C537.75 323.58 540.33 323 543.23 323C546.13 323 548.89 323.57 551.13 324.7C553.37 325.83 555.12 327.44 556.38 329.53C557.64 331.62 558.27 334.07 558.27 336.89V353.53C558.27 356.35 557.64 358.8 556.38 360.89C555.12 362.98 553.37 364.59 551.13 365.72C548.89 366.85 546.28 367.42 543.29 367.42C540.3 367.42 537.74 366.85 535.48 365.72H535.49ZM548.48 361.56C549.97 360.77 551.14 359.67 551.97 358.26C552.8 356.85 553.22 355.21 553.22 353.33V337.07C553.22 335.19 552.8 333.55 551.97 332.14C551.14 330.73 549.97 329.63 548.48 328.84C546.99 328.05 545.28 327.66 543.36 327.66C541.31 327.66 539.55 328.06 538.08 328.84C536.61 329.63 535.46 330.72 534.62 332.1C533.79 333.49 533.37 335.14 533.37 337.06V353.32C533.37 355.24 533.79 356.89 534.62 358.28C535.45 359.67 536.6 360.76 538.08 361.54C539.55 362.33 541.31 362.72 543.36 362.72C545.28 362.72 546.99 362.33 548.48 361.54V361.56Z" fill="white"/>
<path d="M592.51 365.72C590.25 364.59 588.49 362.97 587.23 360.86C585.97 358.75 585.34 356.31 585.34 353.53V336.89C585.34 334.12 585.97 331.68 587.23 329.59C588.49 327.5 590.25 325.88 592.51 324.73C594.77 323.58 597.35 323 600.25 323C603.15 323 605.91 323.57 608.15 324.7C610.39 325.83 612.14 327.44 613.4 329.53C614.66 331.62 615.29 334.07 615.29 336.89V353.53C615.29 356.35 614.66 358.8 613.4 360.89C612.14 362.98 610.39 364.59 608.15 365.72C605.91 366.85 603.3 367.42 600.31 367.42C597.32 367.42 594.76 366.85 592.5 365.72H592.51ZM605.5 361.56C606.99 360.77 608.16 359.67 608.99 358.26C609.82 356.85 610.24 355.21 610.24 353.33V337.07C610.24 335.19 609.82 333.55 608.99 332.14C608.16 330.73 606.99 329.63 605.5 328.84C604.01 328.05 602.3 327.66 600.38 327.66C598.33 327.66 596.57 328.06 595.1 328.84C593.63 329.63 592.48 330.72 591.64 332.1C590.81 333.49 590.39 335.14 590.39 337.06V353.32C590.39 355.24 590.81 356.89 591.64 358.28C592.47 359.67 593.62 360.76 595.1 361.54C596.57 362.33 598.33 362.72 600.38 362.72C602.3 362.72 604.01 362.33 605.5 361.54V361.56Z" fill="white"/>
<path d="M643.9 323.77H648.96V366.65H643.9V323.77ZM646.65 323.77H667.39V328.44H646.65V323.77ZM646.65 343.93H664.89V348.67H646.65V343.93Z" fill="white"/>
<path d="M692.09 323.77H720.12V328.44H692.09V323.77ZM703.68 326.33H708.67V366.65H703.68V326.33Z" fill="white"/>
<path d="M752.83 365.72C750.57 364.59 748.81 362.97 747.55 360.86C746.29 358.75 745.66 356.31 745.66 353.53V336.89C745.66 334.12 746.29 331.68 747.55 329.59C748.81 327.5 750.57 325.88 752.83 324.73C755.09 323.58 757.67 323 760.57 323C763.47 323 766.23 323.57 768.47 324.7C770.71 325.83 772.46 327.44 773.72 329.53C774.98 331.62 775.61 334.07 775.61 336.89V353.53C775.61 356.35 774.98 358.8 773.72 360.89C772.46 362.98 770.71 364.59 768.47 365.72C766.23 366.85 763.62 367.42 760.63 367.42C757.64 367.42 755.08 366.85 752.82 365.72H752.83ZM765.82 361.56C767.31 360.77 768.48 359.67 769.31 358.26C770.14 356.85 770.56 355.21 770.56 353.33V337.07C770.56 335.19 770.14 333.55 769.31 332.14C768.48 330.73 767.31 329.63 765.82 328.84C764.33 328.05 762.62 327.66 760.7 327.66C758.65 327.66 756.89 328.06 755.42 328.84C753.95 329.63 752.8 330.72 751.96 332.1C751.13 333.49 750.71 335.14 750.71 337.06V353.32C750.71 355.24 751.13 356.89 751.96 358.28C752.79 359.67 753.94 360.76 755.42 361.54C756.89 362.33 758.65 362.72 760.7 362.72C762.62 362.72 764.33 362.33 765.82 361.54V361.56Z" fill="white"/>
<path d="M804.22 323.77H809.28V366.65H804.22V323.77ZM807.87 346.87H817.92C820.69 346.87 822.87 346.05 824.45 344.41C826.03 342.77 826.82 340.54 826.82 337.72C826.82 334.9 826.03 332.6 824.45 330.94C822.87 329.28 820.7 328.44 817.92 328.44H807.87V323.77H818.24C821.06 323.77 823.48 324.34 825.5 325.47C827.53 326.6 829.09 328.21 830.2 330.3C831.31 332.39 831.86 334.82 831.86 337.6C831.86 340.38 831.3 342.94 830.2 345.06C829.09 347.17 827.52 348.78 825.5 349.89C823.47 351 821.05 351.55 818.24 351.55H807.87V346.88V346.87Z" fill="white"/>
<path d="M891.96 323.77H897.02V366.65H891.96V323.77ZM895.61 362.17H907.13C909.39 362.17 911.19 361.47 912.54 360.06C913.88 358.65 914.56 356.8 914.56 354.49C914.56 352.18 913.89 350.34 912.54 348.95C911.2 347.56 909.39 346.87 907.13 346.87H895.61V342.77H905.91C908.17 342.77 909.98 342.12 911.35 340.82C912.71 339.52 913.4 337.78 913.4 335.6C913.4 333.42 912.72 331.65 911.35 330.29C909.98 328.93 908.17 328.24 905.91 328.24H895.61V323.76H907.07C910.53 323.76 913.29 324.77 915.36 326.8C917.43 328.83 918.46 331.48 918.46 334.77C918.46 337.29 917.84 339.41 916.6 341.14C915.36 342.87 913.7 343.97 911.61 344.44V344.82C914.04 345.29 915.98 346.47 917.43 348.37C918.88 350.27 919.61 352.6 919.61 355.38C919.61 358.75 918.57 361.47 916.51 363.54C914.44 365.61 911.72 366.64 908.35 366.64H895.61V362.16V362.17Z" fill="white"/>
<path d="M956.73 323.77H963.83L977.01 366.65H971.38L960.37 328.89H959.99L949.05 366.65H943.61L956.73 323.77ZM951.04 351.16H969.47L970.49 355.7H950.2L951.03 351.16H951.04Z" fill="white"/>
<path d="M1003.96 323.77H1009.02V366.65H1003.96V323.77ZM1007.61 345.59H1018.81C1021.37 345.59 1023.4 344.82 1024.89 343.29C1026.38 341.75 1027.13 339.66 1027.13 337.02C1027.13 334.38 1026.38 332.28 1024.89 330.75C1023.4 329.21 1021.37 328.45 1018.81 328.45H1007.61V323.78H1019.26C1021.86 323.78 1024.14 324.3 1026.11 325.35C1028.07 326.4 1029.58 327.91 1030.62 329.89C1031.66 331.87 1032.19 334.21 1032.19 336.9C1032.19 339.59 1031.67 342.05 1030.62 344.04C1029.57 346.02 1028.07 347.55 1026.11 348.62C1024.15 349.69 1021.86 350.22 1019.26 350.22H1007.61V345.61V345.59ZM1017.79 348.92L1022.65 348.02L1032.63 366.64H1026.74L1017.78 348.91L1017.79 348.92Z" fill="white"/>
<path d="M384.13 203.53H408.48L412.05 183.62H411.46C403.73 183.62 401.36 180.35 402.84 171.74L432.55 2.97H431.07L368.68 31.19L365.7 48.43H374.91C378.48 48.43 379.67 49.62 379.07 53.18L358.57 169.65C356.79 179.75 353.22 183.61 345.49 183.61H344.9L341.33 203.52H345.51C353.83 203.52 362.44 209.46 362.44 220.75C362.44 232.04 353.53 242.74 328.87 242.74C260.83 242.74 205.27 192.53 182.09 125.38C210.91 113.79 229.04 93.89 233.19 70.71C240.92 25.85 210.02 0 143.47 0C68.89 0 7.09 24.07 0.550001 60.02C-2.42 75.17 6.79 87.65 22.83 87.65C35.31 87.65 48.09 79.33 50.17 66.55C51.95 58.23 49.28 50.8 43.34 46.94C51.36 41.59 62.06 37.43 75.13 34.16L48.39 186.29C45.72 201.14 42.15 206.2 24.32 207.68L20.75 228.47C36.2 227.28 51.65 226.39 67.1 226.39C84.03 226.39 99.78 227.28 115.23 228.47L118.8 207.68C101.86 206.49 97.11 201.44 99.78 186.58L108.99 134.88C113.15 135.47 117.91 135.47 122.66 135.47H127.12C152.97 216.58 225.76 270.07 333.32 270.07C387.69 270.07 408.49 252.24 408.49 229.96C408.49 218.08 396.31 209.46 384.13 203.81C383.54 203.51 384.13 203.51 384.13 203.51M180.31 67.75C176.75 90.63 160.11 107.26 123.86 107.26C120.89 107.26 117.32 107.26 113.76 106.96L127.73 28.22C131.89 27.92 136.05 27.92 140.21 27.92C173.19 27.92 183.89 41.88 180.32 67.73" fill="white"/>
<path d="M236.45 192.24C246.55 202.34 260.52 207.39 277.75 207.39C321.72 207.39 351.73 168.17 351.73 126.57C351.73 106.66 346.09 91.51 335.69 81.11C325.59 71.01 311.62 65.96 294.39 65.96C250.42 65.96 220.41 105.18 220.41 146.78C220.41 166.69 226.06 181.84 236.45 192.24ZM293.8 92.7C296.77 92.7 298.85 93.89 300.34 95.67C303.61 99.53 305.39 105.77 305.39 114.39C305.39 148.56 292.32 180.65 278.35 180.65C275.38 180.65 273.3 179.46 271.81 177.68C268.54 173.81 266.76 167.58 266.76 158.96C266.76 124.79 279.83 92.7 293.8 92.7Z" fill="white"/>
<path d="M475.03 171.74L504.74 2.96997H503.26L440.87 31.2L437.9 48.43H447.11C450.67 48.43 451.86 49.62 451.27 53.19L430.77 169.66C428.99 179.76 425.42 183.62 417.7 183.62H417.11L413.54 203.53H480.69L484.26 183.62H483.67C475.94 183.62 473.57 180.35 475.05 171.74" fill="white"/>
<path d="M547.23 171.74L565.95 65.97H564.47L502.37 91.82L499.4 109.05H508.61C512.17 109.05 513.36 110.24 512.77 113.8L502.97 169.66C501.19 179.76 497.62 183.62 489.89 183.62H489.3L485.73 203.53H552.88L556.45 183.62H555.86C548.13 183.62 545.76 180.35 547.24 171.74" fill="white"/>
<path d="M541.29 62.0999C559.41 62.0999 574.27 48.7299 574.27 32.3899C574.27 26.15 572.49 20.8 568.62 16.94C564.76 13.08 559.11 10.7 551.39 10.7C533.26 10.7 518.41 24.07 518.41 40.41C518.41 46.6499 520.19 52 524.05 55.86C527.91 59.72 533.56 62.0999 541.29 62.0999Z" fill="white"/>
<path d="M647.65 169.66C645.87 179.76 642.3 183.62 634.58 183.62H633.99L630.43 203.53H697.58L701.14 183.62H700.55C692.82 183.62 690.45 180.35 691.93 171.74L703.52 106.38C707.38 81.42 697.57 65.97 677.97 65.97C663.41 65.97 650.93 74.29 635.18 86.17L631.32 89.14L635.18 65.96H633.7L574.57 91.81L571.6 109.04H580.81C584.37 109.04 585.56 110.23 584.97 113.79L575.16 169.65C573.38 179.75 569.81 183.61 562.09 183.61H561.5L557.93 203.52H625.08L628.64 183.61H628.05C620.32 183.61 617.95 180.34 619.43 171.73L628.64 119.44L641.12 109.93C645.28 106.66 648.25 104.88 651.22 104.88C655.67 104.88 658.65 107.85 657.16 116.17L647.65 169.65V169.66Z" fill="white"/>
<path d="M754.61 168.47C759.07 169.06 763.82 169.66 768.57 169.66C789.67 169.66 806.6 163.12 817 152.72C837.21 132.52 828.89 116.47 838.99 106.37C842.26 103.1 848.5 101.32 858.89 103.7L864.84 69.83C846.42 68.34 832.75 75.18 826.21 88.84C824.73 85.87 822.65 83.19 819.97 80.52C810.46 71.01 797.69 65.96 777.78 65.96C743.91 65.96 718.06 84.38 713.01 113.2C709.44 133.4 717.76 149.75 732.62 159.55C716.58 167.57 708.55 178.56 708.55 196.39C708.55 201.74 710.03 205.9 712.41 209.46C688.05 217.48 676.46 226.1 676.46 242.44C676.46 248.38 678.84 253.43 683.29 257.89C693.1 267.69 713.3 273.34 742.42 273.34C803.92 273.34 834.82 245.41 834.82 213.03C834.82 205.6 832.15 200.25 828.28 196.39C820.56 188.66 806 187.18 789.66 185.69C756.98 182.72 749.25 182.42 749.25 175.59C749.25 172.03 751.03 170.24 754.6 168.46M759.66 118.26C762.63 100.73 770.36 89.14 778.97 89.14C788.18 89.14 791.75 100.43 788.48 118.26C785.21 135.79 778.08 147.37 769.76 147.37C760.25 147.37 756.68 135.49 759.66 118.26ZM770.95 227.89C783.73 229.08 787.88 230.86 787.88 234.72C787.88 239.48 774.81 247.2 749.85 247.2C724.89 247.2 715.38 243.34 715.38 236.5C715.38 229.66 721.92 226.1 732.02 221.64C744.2 225.5 759.06 226.69 770.94 227.88" fill="white"/>
<path d="M981.3 63.88H1004.48C1007.45 46.94 1013.1 21.09 1017.26 6.24C989.04 7.13 982.2 0 951.6 0C905.25 0 872.56 27.04 872.56 67.45C872.56 85.57 878.21 97.75 890.09 109.64C894.54 114.1 900.19 118.85 906.43 123.6L936.14 146.18C947.73 155.09 953.67 161.33 953.67 173.51C953.67 190.45 939.71 203.52 919.2 203.52C904.35 203.52 893.05 199.06 883.55 189.56C874.64 180.64 868.4 165.49 866.62 147.37H843.74C844.04 166.68 843.44 192.83 841.96 212.74C862.16 211.85 877.61 231.16 918.32 231.16C968.53 231.16 1003 202.94 1003 160.74C1003 144.1 996.46 130.73 983.39 117.66C978.64 112.9 973.29 108.15 967.05 103.4L937.34 80.82C925.45 71.61 919.21 64.48 919.21 52.89C919.21 36.55 931.69 26.74 952.19 26.74C962.59 26.74 970.91 30.01 975.96 35.06C981.61 40.7 983.98 49.32 982.2 58.83L981.31 63.88H981.3Z" fill="white"/>
<path d="M1064.79 175C1058.55 175 1055.87 171.14 1058.25 158.07L1068.95 96.86H1099.26L1114.71 72.79H1073.41L1079.65 36.54H1078.17L1010.43 78.73L1007.16 96.86H1024.69L1013.1 162.22C1010.13 179.16 1013.4 191.04 1020.82 198.47C1026.76 204.41 1035.08 207.38 1045.18 207.38C1066.87 207.38 1082.91 195.5 1095.69 182.72L1086.18 163.41C1076.08 172.03 1070.73 175 1064.79 175Z" fill="white"/>
<path d="M1212.45 81.12C1202.35 71.02 1188.38 65.97 1171.15 65.97C1127.18 65.97 1097.17 105.19 1097.17 146.79C1097.17 166.7 1102.82 181.85 1113.21 192.25C1123.31 202.35 1137.28 207.4 1154.51 207.4C1198.48 207.4 1228.49 168.18 1228.49 126.58C1228.49 106.67 1222.85 91.52 1212.45 81.12ZM1155.1 180.65C1152.13 180.65 1150.05 179.46 1148.56 177.68C1145.29 173.82 1143.51 167.58 1143.51 158.96C1143.51 124.79 1156.58 92.7 1170.55 92.7C1173.52 92.7 1175.6 93.89 1177.09 95.67C1180.36 99.54 1182.14 105.77 1182.14 114.39C1182.14 148.56 1169.07 180.65 1155.1 180.65Z" fill="white"/>
<path d="M1342.58 65.96C1328.02 65.96 1315.54 74.28 1299.79 86.16L1295.93 89.13L1299.79 65.95H1298.31L1239.18 91.8L1236.21 109.03H1245.42C1248.98 109.03 1250.17 110.22 1249.58 113.78L1239.77 169.64C1237.99 179.74 1234.42 183.6 1226.7 183.6H1226.11L1222.54 203.51H1289.69L1293.25 183.6H1292.66C1284.93 183.6 1282.56 180.33 1284.04 171.72L1293.25 119.43L1305.73 109.92C1309.89 106.65 1312.86 104.87 1315.83 104.87C1320.29 104.87 1323.26 107.85 1321.77 116.16L1312.26 169.64C1310.48 179.74 1306.91 183.6 1299.19 183.6H1298.59L1295.03 203.51H1362.18L1365.74 183.6H1365.15C1357.42 183.6 1355.05 180.33 1356.53 171.72L1368.12 106.36C1371.98 81.4 1362.18 65.95 1342.57 65.95" fill="white"/>
<path d="M1503.61 112.01C1503.61 98.34 1498.85 87.05 1490.83 79.03C1482.21 70.42 1470.33 65.96 1454.88 65.96C1409.42 65.96 1375.25 104.29 1375.25 155.69C1375.25 172.63 1380 185.7 1388.62 194.32C1397.24 202.94 1409.71 207.39 1426.06 207.39C1455.18 207.39 1477.17 190.75 1494.4 175L1481.92 154.8C1467.96 165.79 1452.8 172.63 1440.62 172.63C1429.63 172.63 1422.5 167.58 1420.42 158.67L1501.83 126.28C1503.02 121.23 1503.61 116.48 1503.61 112.02M1455.48 117.66L1421.61 131.92C1426.07 109.04 1436.77 90.91 1448.65 90.91C1454 90.91 1457.26 95.07 1457.26 104.28C1457.26 107.85 1456.96 112.3 1455.48 117.65" fill="white"/>
</svg>
