<svg width="167" height="35" viewBox="0 0 167 35" fill="none" xmlns="http://www.w3.org/2000/svg">
<path d="M47 15H0V7.50007C0 3.4286 3.44954 0 7.54585 0H39.4542C43.5505 0 47 3.4286 47 7.50007V15Z" fill="#34A853"/>
<path d="M47 21H0V13C0 8.6572 3.44954 5 7.54585 5H39.4542C43.5505 5 47 8.6572 47 13V21Z" fill="#FBBC04"/>
<path d="M47 25H0V17.5C0 13.4286 3.44954 10 7.54585 10H39.4542C43.5505 10 47 13.4286 47 17.5V25Z" fill="#EA4335"/>
<path d="M0 12.422L29.831 19.1744C33.2649 20.0184 37.1279 19.1744 39.9178 17.0642L47 12V27.8256C47 31.8348 43.5663 35 39.4886 35H7.51138C3.43374 35 0 31.8348 0 27.8256V12.422Z" fill="url(#paint0_linear_449_201)"/>
<path d="M56 10.308L59.5276 1H61.1608L64.7015 10.308H63.1206L62.2583 7.916H58.4432L57.5809 10.308H56ZM59.9588 3.743L58.9266 6.59H61.7749L60.7427 3.743L60.39 2.677H60.3116L59.9588 3.743ZM68.3812 10.516C67.7802 10.516 67.2359 10.3687 66.748 10.074C66.269 9.7707 65.8857 9.3547 65.5983 8.826C65.3196 8.2887 65.1802 7.6777 65.1802 6.993C65.1802 6.3083 65.3196 5.7017 65.5983 5.173C65.8857 4.6443 66.269 4.2283 66.748 3.925C67.2359 3.6217 67.7802 3.47 68.3812 3.47C68.8952 3.47 69.335 3.5827 69.7008 3.808C70.0754 4.0333 70.3498 4.289 70.5239 4.575H70.6023L70.5239 3.652V1H71.9219V10.308H70.6023V9.424H70.5239C70.3498 9.71 70.0754 9.9657 69.7008 10.191C69.335 10.4077 68.8952 10.516 68.3812 10.516ZM68.5902 9.229C68.9387 9.229 69.2653 9.138 69.5702 8.956C69.8837 8.774 70.132 8.5183 70.3149 8.189C70.5065 7.851 70.6023 7.4523 70.6023 6.993C70.6023 6.5337 70.5065 6.1393 70.3149 5.81C70.132 5.472 69.8837 5.212 69.5702 5.03C69.2653 4.848 68.9387 4.757 68.5902 4.757C68.2419 4.757 67.9153 4.848 67.6104 5.03C67.3055 5.212 67.0573 5.472 66.8656 5.81C66.6741 6.1393 66.5782 6.5337 66.5782 6.993C66.5782 7.4523 66.6741 7.851 66.8656 8.189C67.0573 8.5183 67.3055 8.774 67.6104 8.956C67.9153 9.138 68.2419 9.229 68.5902 9.229ZM76.3684 10.516C75.7674 10.516 75.223 10.3687 74.7353 10.074C74.2562 9.7707 73.873 9.3547 73.5855 8.826C73.3068 8.2887 73.1674 7.6777 73.1674 6.993C73.1674 6.3083 73.3068 5.7017 73.5855 5.173C73.873 4.6443 74.2562 4.2283 74.7353 3.925C75.223 3.6217 75.7674 3.47 76.3684 3.47C76.8823 3.47 77.3222 3.5827 77.688 3.808C78.0626 4.0333 78.337 4.289 78.5112 4.575H78.5895L78.5112 3.652V1H79.9091V10.308H78.5895V9.424H78.5112C78.337 9.71 78.0626 9.9657 77.688 10.191C77.3222 10.4077 76.8823 10.516 76.3684 10.516ZM76.5775 9.229C76.9259 9.229 77.2526 9.138 77.5574 8.956C77.871 8.774 78.1192 8.5183 78.3021 8.189C78.4938 7.851 78.5895 7.4523 78.5895 6.993C78.5895 6.5337 78.4938 6.1393 78.3021 5.81C78.1192 5.472 77.871 5.212 77.5574 5.03C77.2526 4.848 76.9259 4.757 76.5775 4.757C76.229 4.757 75.9024 4.848 75.5976 5.03C75.2928 5.212 75.0445 5.472 74.8529 5.81C74.6612 6.1393 74.5654 6.5337 74.5654 6.993C74.5654 7.4523 74.6612 7.851 74.8529 8.189C75.0445 8.5183 75.2928 8.774 75.5976 8.956C75.9024 9.138 76.229 9.229 76.5775 9.229ZM85.3261 8.384V4.9H84.1633V3.678H85.3261V1.806H86.7372V3.678H88.3709V4.9H86.7372V8.085C86.7372 8.4143 86.8025 8.6657 86.9332 8.839C87.0724 9.0123 87.3035 9.099 87.6261 9.099C87.791 9.099 87.9307 9.0773 88.0442 9.034C88.1658 8.9907 88.2874 8.93 88.4101 8.852V10.217C88.2613 10.2777 88.1045 10.3253 87.9397 10.36C87.7739 10.3947 87.5779 10.412 87.3518 10.412C86.7329 10.412 86.2407 10.2343 85.8749 9.879C85.509 9.515 85.3261 9.0167 85.3261 8.384ZM92.605 10.516C91.9166 10.516 91.3116 10.36 90.7889 10.048C90.2663 9.736 89.8563 9.3157 89.5608 8.787C89.2643 8.2583 89.1166 7.6603 89.1166 6.993C89.1166 6.3343 89.2643 5.7407 89.5608 5.212C89.8563 4.6747 90.2663 4.25 90.7889 3.938C91.3116 3.626 91.9166 3.47 92.605 3.47C93.2844 3.47 93.8854 3.626 94.408 3.938C94.9307 4.25 95.3397 4.6747 95.6362 5.212C95.9317 5.7407 96.0804 6.3343 96.0804 6.993C96.0804 7.6603 95.9317 8.2583 95.6362 8.787C95.3397 9.3157 94.9307 9.736 94.408 10.048C93.8854 10.36 93.2844 10.516 92.605 10.516ZM92.605 9.229C92.9709 9.229 93.3106 9.1423 93.6241 8.969C93.9377 8.787 94.19 8.5313 94.3819 8.202C94.5819 7.864 94.6824 7.461 94.6824 6.993C94.6824 6.525 94.5819 6.1263 94.3819 5.797C94.19 5.459 93.9377 5.2033 93.6241 5.03C93.3106 4.848 92.9709 4.757 92.605 4.757C92.2392 4.757 91.8945 4.848 91.5729 5.03C91.2593 5.2033 91.002 5.459 90.802 5.797C90.61 6.1263 90.5146 6.525 90.5146 6.993C90.5146 7.461 90.61 7.864 90.802 8.202C91.002 8.5313 91.2593 8.787 91.5729 8.969C91.8945 9.1423 92.2392 9.229 92.605 9.229Z" fill="white"/>
<path d="M62.9803 30.58C62.1032 30.58 61.2775 30.4213 60.5029 30.104C59.7398 29.7867 59.062 29.3447 58.4697 28.778C57.8775 28.2 57.4104 27.5257 57.0687 26.755C56.7384 25.973 56.5732 25.1287 56.5732 24.222C56.5732 23.3153 56.7384 22.4767 57.0687 21.706C57.4104 20.924 57.8717 20.2497 58.4526 19.683C59.0449 19.105 59.7283 18.6573 60.5029 18.34C61.2775 18.0227 62.1032 17.864 62.9803 17.864C63.9142 17.864 64.7742 18.0283 65.5602 18.357C66.3575 18.6857 67.0238 19.1447 67.5592 19.734L66.2607 21.009C65.862 20.567 65.3836 20.227 64.8255 19.989C64.2788 19.751 63.6637 19.632 62.9803 19.632C62.1715 19.632 61.4255 19.8247 60.7421 20.21C60.0587 20.584 59.5062 21.1167 59.0848 21.808C58.6748 22.488 58.4697 23.2927 58.4697 24.222C58.4697 25.1513 58.6805 25.9617 59.1019 26.653C59.5233 27.333 60.0758 27.8657 60.7592 28.251C61.4426 28.625 62.1886 28.812 62.9974 28.812C63.7378 28.812 64.4097 28.676 65.0134 28.404C65.6172 28.1207 66.1012 27.724 66.4657 27.214C66.8416 26.704 67.0694 26.092 67.1491 25.378H62.9632V23.729H68.9089C68.9773 24.035 69.0114 24.358 69.0114 24.698V24.715C69.0114 25.8937 68.7494 26.925 68.2255 27.809C67.7129 28.6817 67.0011 29.3617 66.0898 29.849C65.1786 30.3363 64.1421 30.58 62.9803 30.58ZM74.5128 30.58C73.6129 30.58 72.8214 30.376 72.138 29.968C71.4545 29.56 70.9192 29.0103 70.5319 28.319C70.1446 27.6277 69.951 26.8457 69.951 25.973C69.951 25.1117 70.1446 24.3353 70.5319 23.644C70.9192 22.9413 71.4545 22.386 72.138 21.978C72.8214 21.57 73.6129 21.366 74.5128 21.366C75.4013 21.366 76.1872 21.57 76.8706 21.978C77.554 22.386 78.0893 22.9413 78.4767 23.644C78.8639 24.3353 79.0576 25.1117 79.0576 25.973C79.0576 26.8457 78.8639 27.6277 78.4767 28.319C78.0893 29.0103 77.554 29.56 76.8706 29.968C76.1872 30.376 75.4013 30.58 74.5128 30.58ZM74.5128 28.897C74.9912 28.897 75.4355 28.7837 75.8455 28.557C76.2556 28.319 76.5858 27.9847 76.8365 27.554C77.0984 27.112 77.2294 26.585 77.2294 25.973C77.2294 25.361 77.0984 24.8397 76.8365 24.409C76.5858 23.967 76.2556 23.6327 75.8455 23.406C75.4355 23.168 74.9912 23.049 74.5128 23.049C74.0344 23.049 73.5845 23.168 73.1631 23.406C72.753 23.6327 72.417 23.967 72.1551 24.409C71.9044 24.8397 71.7792 25.361 71.7792 25.973C71.7792 26.585 71.9044 27.112 72.1551 27.554C72.417 27.9847 72.753 28.319 73.1631 28.557C73.5845 28.7837 74.0344 28.897 74.5128 28.897ZM84.8575 30.58C83.9577 30.58 83.166 30.376 82.4826 29.968C81.7992 29.56 81.2639 29.0103 80.8766 28.319C80.4893 27.6277 80.2957 26.8457 80.2957 25.973C80.2957 25.1117 80.4893 24.3353 80.8766 23.644C81.2639 22.9413 81.7992 22.386 82.4826 21.978C83.166 21.57 83.9577 21.366 84.8575 21.366C85.7459 21.366 86.5318 21.57 87.2155 21.978C87.8989 22.386 88.4345 22.9413 88.8215 23.644C89.2084 24.3353 89.4024 25.1117 89.4024 25.973C89.4024 26.8457 89.2084 27.6277 88.8215 28.319C88.4345 29.0103 87.8989 29.56 87.2155 29.968C86.5318 30.376 85.7459 30.58 84.8575 30.58ZM84.8575 28.897C85.3359 28.897 85.7801 28.7837 86.1901 28.557C86.6002 28.319 86.9305 27.9847 87.1813 27.554C87.4436 27.112 87.5742 26.585 87.5742 25.973C87.5742 25.361 87.4436 24.8397 87.1813 24.409C86.9305 23.967 86.6002 23.6327 86.1901 23.406C85.7801 23.168 85.3359 23.049 84.8575 23.049C84.3791 23.049 83.9292 23.168 83.5077 23.406C83.0977 23.6327 82.7617 23.967 82.4997 24.409C82.2491 24.8397 82.1238 25.361 82.1238 25.973C82.1238 26.585 82.2491 27.112 82.4997 27.554C82.7617 27.9847 83.0977 28.319 83.5077 28.557C83.9292 28.7837 84.3791 28.897 84.8575 28.897ZM95.0315 34.252C94.2677 34.252 93.6074 34.1273 93.0496 33.878C92.5029 33.64 92.0587 33.3283 91.717 32.943C91.3753 32.569 91.13 32.1837 90.9823 31.787L92.6908 31.073C92.8727 31.5263 93.1632 31.8947 93.5622 32.178C93.9722 32.4727 94.4617 32.62 95.0315 32.62C95.8285 32.62 96.4547 32.382 96.9109 31.906C97.3773 31.43 97.6114 30.7557 97.6114 29.883V29.05H97.5089C97.2356 29.458 96.8536 29.7867 96.3642 30.036C95.8858 30.274 95.3391 30.393 94.724 30.393C93.9833 30.393 93.3059 30.206 92.6908 29.832C92.0758 29.458 91.5803 28.9367 91.2044 28.268C90.8285 27.588 90.6406 26.7947 90.6406 25.888C90.6406 24.97 90.8285 24.1767 91.2044 23.508C91.5803 22.828 92.0758 22.301 92.6908 21.927C93.3059 21.553 93.9833 21.366 94.724 21.366C95.3391 21.366 95.8858 21.4907 96.3642 21.74C96.8536 21.9893 97.2356 22.318 97.5089 22.726H97.6114V21.638H99.3712V29.849C99.3712 30.7897 99.1833 31.5887 98.8074 32.246C98.4426 32.9033 97.9361 33.402 97.2868 33.742C96.6376 34.082 95.8858 34.252 95.0315 34.252ZM95.0486 28.727C95.5039 28.727 95.925 28.6193 96.3129 28.404C96.6999 28.1773 97.0134 27.8543 97.2526 27.435C97.4918 27.0043 97.6114 26.4887 97.6114 25.888C97.6114 25.2647 97.4918 24.7433 97.2526 24.324C97.0134 23.8933 96.6999 23.5703 96.3129 23.355C95.925 23.1397 95.5039 23.032 95.0486 23.032C94.5923 23.032 94.1652 23.1453 93.7672 23.372C93.3793 23.5873 93.0667 23.9047 92.8275 24.324C92.5883 24.7433 92.4687 25.2647 92.4687 25.888C92.4687 26.5 92.5883 27.0213 92.8275 27.452C93.0667 27.8713 93.3793 28.1887 93.7672 28.404C94.1652 28.6193 94.5923 28.727 95.0486 28.727ZM101.547 30.308V18.136H103.392V30.308H101.547ZM109.465 30.58C108.61 30.58 107.848 30.3817 107.175 29.985C106.504 29.5883 105.974 29.0443 105.586 28.353C105.21 27.6617 105.022 26.874 105.022 25.99C105.022 25.1627 105.205 24.3977 105.569 23.695C105.934 22.9923 106.441 22.4313 107.09 22.012C107.751 21.5813 108.508 21.366 109.362 21.366C110.263 21.366 111.026 21.5587 111.652 21.944C112.29 22.3293 112.774 22.8563 113.104 23.525C113.435 24.1937 113.599 24.9473 113.599 25.786C113.599 25.9107 113.594 26.024 113.582 26.126C113.582 26.228 113.577 26.3073 113.565 26.364H106.834C106.925 27.2253 107.227 27.8713 107.739 28.302C108.264 28.7327 108.856 28.948 109.516 28.948C110.109 28.948 110.598 28.8177 110.985 28.557C111.373 28.285 111.681 27.9507 111.908 27.554L113.429 28.285C113.053 28.965 112.54 29.5203 111.891 29.951C111.242 30.3703 110.434 30.58 109.465 30.58ZM109.379 22.93C108.764 22.93 108.241 23.117 107.807 23.491C107.375 23.865 107.085 24.3637 106.936 24.987H111.771C111.749 24.6923 111.652 24.3863 111.481 24.069C111.31 23.7517 111.049 23.4853 110.695 23.27C110.353 23.0433 109.915 22.93 109.379 22.93ZM121.11 30.308L117.83 18.136H119.914L121.862 26.041L122.067 27.095H122.169L122.425 26.041L124.886 18.136H126.765L129.123 26.041L129.379 27.078H129.482L129.687 26.041L131.635 18.136H133.702L130.473 30.308H128.491L126.15 22.233L125.877 21.094H125.774L125.484 22.233L123.041 30.308H121.11ZM137.133 30.58C136.507 30.58 135.948 30.461 135.459 30.223C134.969 29.9737 134.587 29.628 134.314 29.186C134.041 28.744 133.904 28.2397 133.904 27.673C133.904 27.061 134.064 26.5397 134.382 26.109C134.713 25.667 135.151 25.3327 135.698 25.106C136.245 24.8793 136.849 24.766 137.509 24.766C138.056 24.766 138.534 24.817 138.944 24.919C139.365 25.021 139.685 25.1287 139.901 25.242V24.783C139.901 24.2163 139.696 23.763 139.286 23.423C138.876 23.083 138.346 22.913 137.697 22.913C137.253 22.913 136.832 23.015 136.433 23.219C136.034 23.4117 135.715 23.678 135.476 24.018L134.211 23.049C134.587 22.5277 135.083 22.1197 135.698 21.825C136.324 21.519 137.007 21.366 137.748 21.366C139.012 21.366 139.986 21.6777 140.67 22.301C141.353 22.913 141.695 23.7743 141.695 24.885V30.308H139.901V29.237H139.798C139.57 29.5883 139.229 29.9 138.773 30.172C138.318 30.444 137.771 30.58 137.133 30.58ZM137.458 29.084C137.936 29.084 138.357 28.9707 138.722 28.744C139.087 28.5173 139.371 28.2227 139.576 27.86C139.792 27.486 139.901 27.0837 139.901 26.653C139.639 26.5057 139.331 26.3867 138.978 26.296C138.626 26.194 138.25 26.143 137.851 26.143C137.099 26.143 136.563 26.296 136.245 26.602C135.926 26.8967 135.766 27.2593 135.766 27.69C135.766 28.098 135.92 28.4323 136.228 28.693C136.535 28.9537 136.945 29.084 137.458 29.084ZM143.743 30.308V18.136H145.588V30.308H143.743ZM147.781 30.308V18.136H149.627V30.308H147.781ZM155.699 30.58C154.845 30.58 154.082 30.3817 153.409 29.985C152.738 29.5883 152.208 29.0443 151.82 28.353C151.445 27.6617 151.257 26.874 151.257 25.99C151.257 25.1627 151.44 24.3977 151.803 23.695C152.168 22.9923 152.675 22.4313 153.324 22.012C153.985 21.5813 154.742 21.366 155.596 21.366C156.497 21.366 157.26 21.5587 157.886 21.944C158.524 22.3293 159.008 22.8563 159.338 23.525C159.669 24.1937 159.834 24.9473 159.834 25.786C159.834 25.9107 159.829 26.024 159.816 26.126C159.816 26.228 159.811 26.3073 159.799 26.364H153.068C153.159 27.2253 153.461 27.8713 153.973 28.302C154.498 28.7327 155.09 28.948 155.75 28.948C156.343 28.948 156.833 28.8177 157.219 28.557C157.607 28.285 157.915 27.9507 158.142 27.554L159.663 28.285C159.287 28.965 158.774 29.5203 158.125 29.951C157.476 30.3703 156.668 30.58 155.699 30.58ZM155.613 22.93C154.998 22.93 154.475 23.117 154.042 23.491C153.609 23.865 153.319 24.3637 153.17 24.987H158.005C157.983 24.6923 157.886 24.3863 157.715 24.069C157.544 23.7517 157.283 23.4853 156.929 23.27C156.587 23.0433 156.149 22.93 155.613 22.93ZM162.218 27.792V23.236H160.698V21.638H162.218V19.19H164.064V21.638H166.199V23.236H164.064V27.401C164.064 27.8317 164.149 28.1603 164.32 28.387C164.502 28.6137 164.803 28.727 165.225 28.727C165.442 28.727 165.623 28.6987 165.772 28.642C165.931 28.5853 166.091 28.506 166.251 28.404V30.189C166.057 30.2683 165.852 30.3307 165.636 30.376C165.418 30.4213 165.162 30.444 164.867 30.444C164.058 30.444 163.414 30.2117 162.936 29.747C162.458 29.271 162.218 28.6193 162.218 27.792Z" fill="white"/>
<defs>
<linearGradient id="paint0_linear_449_201" x1="21.2601" y1="23.9392" x2="-2.9516" y2="52.2498" gradientUnits="userSpaceOnUse">
<stop stop-color="#4285F4"/>
<stop offset="1" stop-color="#1B74E8"/>
</linearGradient>
</defs>
</svg>
